<svg width="16" height="16" viewBox="0 0 16 16" xmlns="http://www.w3.org/2000/svg" xmlns:xlink="http://www.w3.org/1999/xlink">
    <defs>
        <path d="M11.696 1.772A1.038 1.038 0 0 0 10.227.304L6 4.532 1.773.304A1.038 1.038 0 1 0 .304 1.773L4.532 6 .304 10.227a1.038 1.038 0 1 0 1.469 1.469L6 7.468l4.227 4.228a1.037 1.037 0 0 0 1.469 0 1.038 1.038 0 0 0 0-1.468L7.468 6l4.228-4.228z" id="sswqoh9kxa"/>
    </defs>
    <g transform="translate(2 2)" fill="none" fill-rule="evenodd">
        <mask id="5o6fld1dqb" fill="#fff">
            <use xlink:href="#sswqoh9kxa"/>
        </mask>
        <g mask="url(#5o6fld1dqb)" opacity=".35">
            <path d="M-2-2h16v16H-2z" fill="#112655"/>
        </g>
    </g>
</svg>
